<?xml version="1.0" encoding="UTF-8" standalone="no"?>
<!-- Created with Inkscape (http://www.inkscape.org/) -->

<svg xmlns:dc="http://purl.org/dc/elements/1.1/" xmlns:cc="http://creativecommons.org/ns#" xmlns:rdf="http://www.w3.org/1999/02/22-rdf-syntax-ns#" xmlns:svg="http://www.w3.org/2000/svg" xmlns="http://www.w3.org/2000/svg" xmlns:xlink="http://www.w3.org/1999/xlink" version="1.0" width="450" height="250" id="svg2">
  <defs id="defs4" />
  <metadata id="metadata7">
    <rdf:RDF>
      <cc:Work rdf:about="">
        <dc:format>image/svg+xml</dc:format>
        <dc:type rdf:resource="http://purl.org/dc/dcmitype/StillImage" />
        <dc:title></dc:title>
        <dc:date>July 29, 2006</dc:date>
        <dc:creator>
          <cc:Agent>
            <dc:title>[[en:User:Xyzzy n]]</dc:title>
          </cc:Agent>
        </dc:creator>
        <dc:subject>
          <rdf:Bag>
            <rdf:li>American football</rdf:li>
            <rdf:li>field</rdf:li>
          </rdf:Bag>
        </dc:subject>
        <dc:description>Schematic view of the field used for American football. This image is a trace of http://en.wikipedia.org/wiki/Image:AmFBfield.png, which was created by [[en:User:Ed g2s]].</dc:description>
        <cc:license rdf:resource="http://creativecommons.org/licenses/GPL/2.0/" />
      </cc:Work>
      <cc:License rdf:about="http://creativecommons.org/licenses/GPL/2.0/">
        <cc:permits rdf:resource="http://web.resource.org/cc/Reproduction" />
        <cc:permits rdf:resource="http://web.resource.org/cc/Distribution" />
        <cc:requires rdf:resource="http://web.resource.org/cc/Notice" />
        <cc:permits rdf:resource="http://web.resource.org/cc/DerivativeWorks" />
        <cc:requires rdf:resource="http://web.resource.org/cc/ShareAlike" />
        <cc:requires rdf:resource="http://web.resource.org/cc/SourceCode" />
      </cc:License>
    </rdf:RDF>
  </metadata>
  <g transform="translate(23.031494,27.559044)" id="layer3" style="display:inline">
    <rect width="450" height="250" x="-23.031494" y="-27.559044" id="rect6440" style="fill:#29a500;fill-opacity:1;fill-rule:evenodd;stroke:none;stroke-width:0.88582677;marker:none;visibility:visible;display:inline;overflow:visible" />
  </g>
  <g transform="translate(23.031494,27.559044)" id="layer1" style="display:inline">
    <g transform="translate(3.49304,217.00001)" id="g3633" style="display:inline">
      <rect width="382.68039" height="173.62204" x="-2.8718376" y="-216.37007" id="rect1307-9" style="color:#000000;fill:#29a500;fill-opacity:1;fill-rule:evenodd;stroke:#ffffff;stroke-width:1.77165353;stroke-linecap:round;stroke-linejoin:round;stroke-miterlimit:4;stroke-opacity:1;stroke-dasharray:none;stroke-dashoffset:0;marker:none;visibility:visible;display:inline;overflow:visible" />
      <rect width="31.889763" height="173.62204" x="-2.8702202" y="-216.37007" id="rect2182-4" style="color:#000000;fill:#217b00;fill-opacity:1;fill-rule:evenodd;stroke:#ffffff;stroke-width:1.77165353;stroke-linecap:round;stroke-linejoin:round;stroke-miterlimit:4;stroke-opacity:1;stroke-dasharray:none;stroke-dashoffset:0;marker:none;visibility:visible;display:inline;overflow:visible" />
      <rect width="31.889763" height="173.62204" x="348.27151" y="-216.37007" id="rect2184-8" style="color:#000000;fill:#217b00;fill-opacity:1;fill-rule:evenodd;stroke:#ffffff;stroke-width:1.77165353;stroke-linecap:round;stroke-linejoin:round;stroke-miterlimit:4;stroke-opacity:1;stroke-dasharray:none;stroke-dashoffset:0;marker:none;visibility:visible;display:inline;overflow:visible" />
      <path d="m 45.46875,-216.46875 0,173.8125 0,-173.8125 z m 15.625,0 0,173.8125 0,-173.8125 z m 16.25,0 0,173.8125 0,-173.8125 z m 15.625,0 0,173.8125 0,-173.8125 z m 16.28125,0 0,173.8125 0,-173.8125 z m 15.625,0 0,173.8125 0,-173.8125 z m 16.25,0 0,173.8125 0,-173.8125 z m 15.625,0 0,173.8125 0,-173.8125 z m 16.28125,0 0,173.8125 0,-173.8125 z m 15.625,0 0,173.8125 0,-173.8125 z m 16.25,0 0,173.8125 0,-173.8125 z m 15.625,0 0,173.8125 0,-173.8125 z m 16.28125,0 0,173.8125 0,-173.8125 z m 15.625,0 0,173.8125 0,-173.8125 z m 16.25,0 0,173.8125 0,-173.8125 z m 15.625,0 0,173.8125 0,-173.8125 z m 16.28125,0 0,173.8125 0,-173.8125 z m 15.625,0 0,173.8125 0,-173.8125 z m 16.25,0 0,173.8125 0,-173.8125 z m -296.90625,82.125 0,9.59375 0,-9.59375 z m 306.125,0 0,9.59375 0,-9.59375 z" id="path2186-8" style="fill:none;stroke:#ffffff;stroke-width:0.88582677;stroke-linecap:butt;stroke-linejoin:miter;stroke-miterlimit:4;stroke-opacity:1;stroke-dasharray:none" />
      <path d="m 328.7808,-214.37348 0,5.13084 m -3.18411,-5.13084 0,5.13084 m -3.18414,-5.13084 0,5.13084 m -3.18411,-5.13084 0,5.13084 m 25.82096,-5.13084 0,5.13084 m -3.18411,-5.13084 0,5.13084 m -3.18414,-5.13084 0,5.13084 m -3.18411,-5.13084 0,5.13084 m -38.60604,-5.13084 0,5.13084 m -3.18411,-5.13084 0,5.13084 m -3.18414,-5.13084 0,5.13084 m -3.18411,-5.13084 0,5.13084 m 25.82096,-5.13084 0,5.13084 m -3.18411,-5.13084 0,5.13084 m -3.18414,-5.13084 0,5.13084 m -3.18411,-5.13084 0,5.13084 m -38.60594,-5.13084 0,5.13084 m -3.18411,-5.13084 0,5.13084 m -3.18414,-5.13084 0,5.13084 m -3.18411,-5.13084 0,5.13084 m 25.82096,-5.13084 0,5.13084 m -3.18411,-5.13084 0,5.13084 m -3.18414,-5.13084 0,5.13084 m -3.18411,-5.13084 0,5.13084 m -38.60604,-5.13084 0,5.13084 m -3.18411,-5.13084 0,5.13084 m -3.18414,-5.13084 0,5.13084 m -3.18411,-5.13084 0,5.13084 m 25.82096,-5.13084 0,5.13084 m -3.18411,-5.13084 0,5.13084 m -3.18414,-5.13084 0,5.13084 m -3.18411,-5.13084 0,5.13084 m -38.60594,-5.13084 0,5.13084 m -3.18411,-5.13084 0,5.13084 m -3.18414,-5.13084 0,5.13084 m -3.18411,-5.13084 0,5.13084 m 25.82086,-5.13084 0,5.13084 m -3.18411,-5.13084 0,5.13084 m -3.18414,-5.13084 0,5.13084 m -3.18411,-5.13084 0,5.13084 m -38.60594,-5.13084 0,5.13084 m -3.18411,-5.13084 0,5.13084 m -3.18414,-5.13084 0,5.13084 m -3.18411,-5.13084 0,5.13084 m 25.82096,-5.13084 0,5.13084 m -3.18411,-5.13084 0,5.13084 m -3.18414,-5.13084 0,5.13084 m -3.18411,-5.13084 0,5.13084 m -38.60601,-5.13084 0,5.13084 m -3.18411,-5.13084 0,5.13084 m -3.18414,-5.13084 0,5.13084 m -3.18411,-5.13084 0,5.13084 m 25.82093,-5.13084 0,5.13084 m -3.18411,-5.13084 0,5.13084 m -3.18414,-5.13084 0,5.13084 m -3.18411,-5.13084 0,5.13084 m -38.60598,-5.13084 0,5.13084 m -3.18411,-5.13084 0,5.13084 m -3.18414,-5.13084 0,5.13084 m -3.18411,-5.13084 0,5.13084 m 25.82093,-5.13084 0,5.13084 m -3.18411,-5.13084 0,5.13084 m -3.18414,-5.13084 0,5.13084 m -3.18411,-5.13084 0,5.13084 m -38.605973,-5.13084 0,5.13084 m -3.18411,-5.13084 0,5.13084 m -3.184136,-5.13084 0,5.13084 m -3.18411,-5.13084 0,5.13084 m 25.820929,-5.13084 0,5.13084 m -3.18411,-5.13084 0,5.13084 m -3.184139,-5.13084 0,5.13084 m -3.18411,-5.13084 0,5.13084 m -38.605984,-5.13084 0,5.13084 m -3.18411,-5.13084 0,5.13084 m -3.184136,-5.13084 0,5.13084 m -3.18411,-5.13084 0,5.13084 m 25.820926,-5.13084 0,5.13084 m -3.18411,-5.13084 0,5.13084 m -3.184136,-5.13084 0,5.13084 m -3.18411,-5.13084 0,5.13084" id="path2897-2" style="fill:none;stroke:#ffffff;stroke-width:1.33332002;stroke-linecap:butt;stroke-linejoin:miter;stroke-miterlimit:4;stroke-opacity:1;stroke-dasharray:none" />
      <path d="m -5.25,-146.3125 4.78125,0 -4.78125,0 z m 0,33.5 4.78125,0 -4.78125,0 z" id="path2947-4" style="fill:none;stroke:#ffffff;stroke-width:1.33332002;stroke-linecap:butt;stroke-linejoin:miter;stroke-miterlimit:4;stroke-opacity:1;stroke-dasharray:none" />
      <use transform="translate(-2.4989185e-5,57.445254)" id="use3179" x="0" y="0" width="403.93701" height="194.8819" xlink:href="#path2897-2" />
      <use transform="translate(1.0814546e-8,107.05156)" id="use3199" x="0" y="0" width="403.93701" height="194.8819" xlink:href="#path2897-2" />
      <use transform="translate(-2.4989185e-5,164.49802)" id="use3219" x="0" y="0" width="403.93701" height="194.8819" xlink:href="#path2897-2" />
      <g transform="translate(-13.5,-227)" id="g3405">
        <text x="74.196129" y="162.83719" id="text3645" xml:space="preserve" style="font-size:16px;font-style:normal;font-variant:normal;font-weight:bold;font-stretch:normal;text-align:center;line-height:100%;writing-mode:lr-tb;text-anchor:middle;fill:#ffffff;fill-opacity:1;stroke:#808080;stroke-width:0.17716534;stroke-linecap:butt;stroke-linejoin:miter;stroke-miterlimit:4;stroke-opacity:1;stroke-dasharray:none;font-family:Sans"><tspan x="74.196129" y="162.83719" id="tspan3647">10</tspan></text>
        <text x="106.08589" y="162.83719" id="text3649" xml:space="preserve" style="font-size:16px;font-style:normal;font-variant:normal;font-weight:bold;font-stretch:normal;text-align:center;line-height:100%;writing-mode:lr-tb;text-anchor:middle;fill:#ffffff;fill-opacity:1;stroke:#808080;stroke-width:0.17716534;stroke-linecap:butt;stroke-linejoin:miter;stroke-miterlimit:4;stroke-opacity:1;stroke-dasharray:none;font-family:Sans"><tspan x="106.08589" y="162.83719" id="tspan3651">20</tspan></text>
        <text x="137.97566" y="162.83719" id="text3653" xml:space="preserve" style="font-size:16px;font-style:normal;font-variant:normal;font-weight:bold;font-stretch:normal;text-align:center;line-height:100%;writing-mode:lr-tb;text-anchor:middle;fill:#ffffff;fill-opacity:1;stroke:#808080;stroke-width:0.17716534;stroke-linecap:butt;stroke-linejoin:miter;stroke-miterlimit:4;stroke-opacity:1;stroke-dasharray:none;font-family:Sans"><tspan x="137.97566" y="162.83719" id="tspan3655">30</tspan></text>
        <text x="169.86543" y="162.83719" id="text3657" xml:space="preserve" style="font-size:16px;font-style:normal;font-variant:normal;font-weight:bold;font-stretch:normal;text-align:center;line-height:100%;writing-mode:lr-tb;text-anchor:middle;fill:#ffffff;fill-opacity:1;stroke:#808080;stroke-width:0.17716534;stroke-linecap:butt;stroke-linejoin:miter;stroke-miterlimit:4;stroke-opacity:1;stroke-dasharray:none;font-family:Sans"><tspan x="169.86543" y="162.83719" id="tspan3659">40</tspan></text>
        <text x="201.75519" y="162.83719" id="text3661" xml:space="preserve" style="font-size:16px;font-style:normal;font-variant:normal;font-weight:bold;font-stretch:normal;text-align:center;line-height:100%;writing-mode:lr-tb;text-anchor:middle;fill:#ffffff;fill-opacity:1;stroke:#808080;stroke-width:0.17716534;stroke-linecap:butt;stroke-linejoin:miter;stroke-miterlimit:4;stroke-opacity:1;stroke-dasharray:none;font-family:Sans"><tspan x="201.75519" y="162.83719" id="tspan3663">50</tspan></text>
        <path d="m 59.979253,156.88022 3.978012,-1.14803 0,2.29606 z" id="path3683" style="color:#000000;fill:#ffffff;fill-opacity:1;fill-rule:evenodd;stroke:none;stroke-width:0.17716534;marker:none;visibility:visible;display:inline;overflow:visible" />
        <use transform="translate(31.888637,6.9456263e-8)" id="use3332" x="0" y="0" width="403.93701" height="194.8819" xlink:href="#path3683" />
        <use transform="translate(63.778405,6.9456263e-8)" id="use3334" x="0" y="0" width="403.93701" height="194.8819" xlink:href="#path3683" />
        <use transform="translate(95.668165,6.9456263e-8)" id="use3336" x="0" y="0" width="403.93701" height="194.8819" xlink:href="#path3683" />
        <use transform="matrix(-1,0,0,1,309.68615,-4.0273437e-6)" id="use3338" x="0" y="0" width="403.93701" height="194.8819" xlink:href="#path3683" />
        <use transform="matrix(-1,0,0,1,341.57591,-2.1047437e-6)" id="use3340" x="0" y="0" width="403.93701" height="194.8819" xlink:href="#path3683" />
        <use transform="matrix(-1,0,0,1,373.46568,-2.1047437e-6)" id="use3342" x="0" y="0" width="403.93701" height="194.8819" xlink:href="#path3683" />
        <use transform="matrix(-1,0,0,1,405.35432,-4.0273437e-6)" id="use3344" x="0" y="0" width="403.93701" height="194.8819" xlink:href="#path3683" />
        <use transform="translate(255.11811,0)" id="use3021" x="0" y="0" width="403.93701" height="194.8819" xlink:href="#text3645" />
        <use transform="translate(191.33858,0)" id="use3023" x="0" y="0" width="403.93701" height="194.8819" xlink:href="#text3649" />
        <use transform="translate(127.55904,0)" id="use3025" x="0" y="0" width="403.93701" height="194.8819" xlink:href="#text3653" />
        <use transform="translate(63.779526,0)" id="use3027" x="0" y="0" width="403.93701" height="194.8819" xlink:href="#text3657" />
      </g>
      <use transform="translate(382.66855,0.01140698)" id="use3385" x="0" y="0" width="403.93701" height="194.8819" xlink:href="#path2947-4" />
      <use transform="matrix(-1,0,0,-1,376.93701,-259.1181)" id="use3433" x="0" y="0" width="403.93701" height="194.8819" xlink:href="#g3405" />
    </g>
  </g>
  <g transform="translate(23.031494,27.559044)" id="layer4" style="display:inline">
    <path d="m -134.23417,14.656624 8.52,0 0,1.692 -3.264,0 0,4.608 3.888,0 0,1.692 -9.768,0 0,-1.692 3.888,0 0,-4.608 -3.264,0 0,-1.692 m 16.68807,6.756 c 2.19999,-0.223999 3.87599,-0.807998 5.028,-1.752 1.15199,-0.951996 1.97999,-2.423995 2.484,-4.416 l 1.788,0.516 c -0.51201,2.328005 -1.49601,4.096003 -2.952,5.304 -1.44801,1.2 -3.48001,1.912 -6.096,2.136 l -0.252,-1.788 m -0.252,-5.856 0.984,-1.536 c 1.32799,0.760008 2.47999,1.484007 3.456,2.172 l -1.032,1.524 c -1.06401,-0.735994 -2.20001,-1.455994 -3.408,-2.16 m 24.068058,0.528 -1.356,0.648 c -0.328007,-0.655993 -0.700007,-1.347993 -1.116,-2.076 l 1.356,-0.684 1.116,2.112 m 2.124,-0.432 -1.38,0.66 c -0.336009,-0.663993 -0.716009,-1.371992 -1.14,-2.124 l 1.38,-0.696 c 0.51199,0.944008 0.891989,1.664007 1.14,2.16 m -8.304,-1.884 1.992,0 0,3.24 c 1.791994,0.480005 3.543992,1.080005 5.256,1.8 l -0.672,1.644 c -1.432008,-0.615997 -2.960006,-1.151997 -4.584,-1.608 l 0,4.692 -1.992,0 0,-9.768 m 16.328063,7.932 c 1.407996,-0.247999 2.515995,-0.591999 3.324,-1.032 0.807993,-0.447998 1.427992,-1.067997 1.86,-1.86 0.439992,-0.791995 0.747991,-1.863994 0.924,-3.216 l 1.896,0.156 c -0.160011,1.272006 -0.40401,2.336005 -0.732,3.192 -0.32801,0.848003 -0.796009,1.576002 -1.404,2.184 -0.608008,0.600001 -1.344007,1.072 -2.208,1.416 -0.856006,0.344 -1.932004,0.627999 -3.228,0.852 l -0.432,-1.692 m 7.392,-6.864 -1.128,0.54 c -0.256009,-0.527992 -0.560008,-1.107992 -0.912,-1.74 l 1.128,-0.564 c 0.32799,0.616009 0.63199,1.204008 0.912,1.764 m 1.848,-0.144 -1.152,0.552 -0.936,-1.776 1.152,-0.576 c 0.367989,0.672009 0.679988,1.272008 0.936,1.8 m -10.56,0.564 1.644,-0.876 c 0.759996,1.336007 1.443995,2.636006 2.052,3.9 l -1.692,0.756 c -0.560003,-1.127995 -1.228002,-2.387994 -2.004,-3.78 m 16.808062,4.08 0,-1.944 9.552,0 0,1.944 -9.552,0 m 17.204063,2.076 c 2.199996,-0.223999 3.875994,-0.807998 5.028,-1.752 1.151992,-0.951996 1.979991,-2.423995 2.484,-4.416 l 1.788,0.516 c -0.512011,2.328005 -1.49601,4.096003 -2.952,5.304 -1.448007,1.2 -3.480005,1.912 -6.096,2.136 l -0.252,-1.788 m -0.252,-5.856 0.984,-1.536 c 1.327996,0.760008 2.479995,1.484007 3.456,2.172 l -1.032,1.524 c -1.064004,-0.735994 -2.200003,-1.455994 -3.408,-2.16" transform="matrix(0,-1,1,0,0,0)" id="text2816" style="font-size:12px;font-style:normal;font-variant:normal;font-weight:800;font-stretch:normal;text-align:start;line-height:125%;writing-mode:lr-tb;text-anchor:start;fill:#ffff80;fill-opacity:0.75294118;stroke:none;font-family:'M+ 2c';-inkscape-font-specification:'M+ 2c Ultra-Bold'" />
    <path d="m 42.21385,-369.77259 8.52,0 0,1.692 -3.264,0 0,4.608 3.888,0 0,1.692 -9.768,0 0,-1.692 3.888,0 0,-4.608 -3.264,0 0,-1.692 m 16.688063,6.756 c 2.199996,-0.224 3.875994,-0.808 5.028,-1.752 1.151992,-0.952 1.979991,-2.424 2.484,-4.416 l 1.788,0.516 c -0.512011,2.328 -1.49601,4.096 -2.952,5.304 -1.448007,1.2 -3.480005,1.912 -6.096,2.136 l -0.252,-1.788 m -0.252,-5.856 0.984,-1.536 c 1.327996,0.76001 2.479995,1.48401 3.456,2.172 l -1.032,1.524 c -1.064004,-0.73599 -2.200003,-1.45599 -3.408,-2.16 m 24.068062,0.528 -1.356,0.648 c -0.328007,-0.65599 -0.700007,-1.34799 -1.116,-2.076 l 1.356,-0.684 1.116,2.112 m 2.124,-0.432 -1.38,0.66 c -0.336009,-0.66399 -0.716009,-1.37199 -1.14,-2.124 l 1.38,-0.696 c 0.51199,0.94401 0.891989,1.66401 1.14,2.16 m -8.304,-1.884 1.992,0 0,3.24 c 1.791994,0.48 3.543992,1.08 5.256,1.8 l -0.672,1.644 c -1.432008,-0.616 -2.960006,-1.152 -4.584,-1.608 l 0,4.692 -1.992,0 0,-9.768 m 16.328063,7.932 c 1.407996,-0.248 2.515995,-0.592 3.324,-1.032 0.807993,-0.448 1.427993,-1.068 1.86,-1.86 0.439992,-0.792 0.747991,-1.86399 0.924,-3.216 l 1.896002,0.156 c -0.16001,1.27201 -0.40401,2.336 -0.732,3.192 -0.328012,0.848 -0.796011,1.576 -1.404002,2.184 -0.608008,0.6 -1.344007,1.072 -2.208,1.416 -0.856005,0.344 -1.932004,0.628 -3.228,0.852 l -0.432,-1.692 m 7.392002,-6.864 -1.128002,0.54 c -0.256009,-0.52799 -0.560008,-1.10799 -0.912,-1.74 l 1.128,-0.564 c 0.327991,0.61601 0.63199,1.20401 0.912002,1.764 m 1.848,-0.144 -1.152,0.552 -0.936,-1.776 1.152,-0.576 c 0.36799,0.67201 0.67999,1.27201 0.936,1.8 m -10.560002,0.564 1.644,-0.876 c 0.759996,1.33601 1.443996,2.63601 2.052,3.9 l -1.692,0.756 c -0.560003,-1.128 -1.228002,-2.38799 -2.004,-3.78 m 16.808062,4.08 0,-1.944 9.552,0 0,1.944 -9.552,0 m 17.20406,2.076 c 2.2,-0.224 3.876,-0.808 5.028,-1.752 1.15199,-0.952 1.97999,-2.424 2.484,-4.416 l 1.788,0.516 c -0.51201,2.328 -1.49601,4.096 -2.952,5.304 -1.448,1.2 -3.48,1.912 -6.096,2.136 l -0.252,-1.788 m -0.252,-5.856 0.984,-1.536 c 1.328,0.76001 2.48,1.48401 3.456,2.172 l -1.032,1.524 c -1.064,-0.73599 -2.2,-1.45599 -3.408,-2.16" transform="matrix(0,1,-1,0,0,0)" id="text3592" style="font-size:12px;font-style:normal;font-variant:normal;font-weight:800;font-stretch:normal;text-align:start;line-height:125%;writing-mode:lr-tb;text-anchor:start;fill:#ffff80;fill-opacity:0.75294118;stroke:none;font-family:'M+ 2c';-inkscape-font-specification:'M+ 2c Ultra-Bold'" />
    <path d="m 32.275183,202.33337 0,-24.9431" id="path3598" style="fill:none;stroke:#ffff80;stroke-width:0.79373562;stroke-linecap:butt;stroke-linejoin:miter;stroke-miterlimit:4;stroke-opacity:1;stroke-dasharray:none" />
    <path d="m 13.88,205.5059 -1.152,0.552 -0.936,-1.776 1.152,-0.576 c 0.367989,0.67201 0.679988,1.27201 0.936,1.8 m -2.244,0.336 0,8.304 -1.596,0 0,-0.72 -6.684,0 0,-1.404 6.684,0 0,-4.836 -6.684,0 0,-1.404 7.344,0 -0.708,-1.332 1.128,-0.564 c 0.327991,0.61601 0.63199,1.20401 0.912,1.764 l -0.396,0.192 m 3.6,4.26 0,-1.596 9.528,0 0,1.596 -9.528,0 m 16.764,4.104 0,-9.204 1.596,0 0,7.416 c 1.223991,-0.608 2.03999,-1.92 2.448,-3.936 l 1.476,0.336 c -0.256011,1.424 -0.696011,2.56 -1.32,3.408 -0.62401,0.84 -1.492009,1.5 -2.604,1.98 l -1.596,0 m -3.096,-9.204 1.596,0 0,2.244 c -4e-6,1.568 -0.084,2.784 -0.252,3.648 -0.160004,0.856 -0.440004,1.544 -0.84,2.064 -0.392003,0.512 -0.988002,0.992 -1.788,1.44 l -0.96,-1.188 c 0.503999,-0.28 0.883998,-0.536 1.14,-0.768 0.255998,-0.232 0.475998,-0.568 0.66,-1.008 0.191997,-0.448 0.311997,-0.984 0.36,-1.608 0.056,-0.624 0.084,-1.484 0.084,-2.58 l 0,-2.244 m 10.44,4.428 0,-1.368 9.192,0 0,1.368 c -0.36001,1.48 -1.080009,2.616 -2.16,3.408 -1.072007,0.784 -2.636006,1.3 -4.692,1.548 l -0.264,-1.356 c 1.655995,-0.216 2.923994,-0.612 3.804,-1.188 0.879992,-0.584 1.459991,-1.388 1.74,-2.412 l -7.62,0 m 0.996,-2.964 0,-1.356 7.32,0 0,1.356 -7.32,0 m 10.812,3 c 1.615997,-0.344 3.155996,-0.916 4.62,-1.716 1.463993,-0.808 2.735991,-1.776 3.816,-2.904 l 1.128,1.068 c -0.96001,1.008 -2.092009,1.908 -3.396,2.7 l 0,5.652 -1.644,0 0,-4.776 c -1.360004,0.656 -2.756003,1.128 -4.188,1.416 l -0.336,-1.44 m 12.708,3.12 c 2.183996,-0.216 3.883994,-0.828 5.1,-1.836 1.223992,-1.008 2.071991,-2.504 2.544,-4.488 l 1.476,0.408 c -0.480011,2.272 -1.45201,4.016 -2.916,5.232 -1.464007,1.216 -3.464005,1.936 -6,2.16 l -0.204,-1.476 m -0.216,-6.252 0.816,-1.26 c 1.175996,0.67201 2.303995,1.392 3.384,2.16 l -0.864,1.26 c -1.032004,-0.728 -2.144003,-1.448 -3.336,-2.16" id="text3600" style="font-size:12px;font-style:normal;font-variant:normal;font-weight:bold;font-stretch:normal;text-align:start;line-height:125%;writing-mode:lr-tb;text-anchor:start;fill:#ffff80;fill-opacity:1;stroke:none;font-family:'M+ 2c';-inkscape-font-specification:'M+ 2c Bold'" />
    <path d="m 192.23254,203.25294 0,-24.9431" id="path3751" style="fill:none;stroke:#ffff80;stroke-width:0.79373562;stroke-linecap:butt;stroke-linejoin:miter;stroke-miterlimit:4;stroke-opacity:1;stroke-dasharray:none" />
    <path d="m 144.84,205.7459 1.476,-0.48 c 1.06399,2.464 1.97999,5.268 2.748,8.412 l -1.644,0.336 c -0.73601,-3.152 -1.59601,-5.908 -2.58,-8.268 m -1.956,-0.252 c -0.208,3.096 -1.072,5.928 -2.592,8.496 l -1.464,-0.72 c 1.432,-2.384 2.264,-5.008 2.496,-7.872 l 1.56,0.096 m 8.352,4.608 0,-1.596 9.528,0 0,1.596 -9.528,0 m 12.444,-3.396 0,-1.404 8.724,0 0,1.404 c -0.25601,2.152 -0.98801,3.82 -2.196,5.004 -1.20801,1.184 -2.97601,1.956 -5.304,2.316 l -0.348,-1.404 c 1.912,-0.328 3.37599,-0.976 4.392,-1.944 1.01599,-0.968 1.62399,-2.292 1.824,-3.972 l -7.092,0 m 17.124,-2.4 0,1.92 3.72,0 0,1.644 c -1e-5,3.792 -2.22801,5.964 -6.684,6.516 l -0.288,-1.404 c 1.85599,-0.232 3.21199,-0.752 4.068,-1.56 0.86399,-0.808 1.29599,-1.94 1.296,-3.396 l 0,-0.444 -5.76,0 0,2.364 -1.56,0 0,-3.72 3.6,0 0,-1.92 1.608,0 m 7.812,3.072 6.768,0 0,1.272 -2.64,0 0,3.792 3.144,0 0,1.272 -7.776,0 0,-1.272 3.144,0 0,-3.792 -2.64,0 0,-1.272 m 10.62,2.724 0,-1.596 9.528,0 0,1.596 -9.528,0 m 12.108,-0.672 0,-1.368 9.192,0 0,1.368 c -0.36001,1.48 -1.08001,2.616 -2.16,3.408 -1.07201,0.784 -2.63601,1.3 -4.692,1.548 l -0.264,-1.356 c 1.65599,-0.216 2.92399,-0.612 3.804,-1.188 0.87999,-0.584 1.45999,-1.388 1.74,-2.412 l -7.62,0 m 0.996,-2.964 0,-1.356 7.32,0 0,1.356 -7.32,0 m 10.812,3 c 1.616,-0.344 3.156,-0.916 4.62,-1.716 1.46399,-0.808 2.73599,-1.776 3.816,-2.904 l 1.128,1.068 c -0.96001,1.008 -2.09201,1.908 -3.396,2.7 l 0,5.652 -1.644,0 0,-4.776 c -1.36,0.656 -2.756,1.128 -4.188,1.416 l -0.336,-1.44 m 12.708,3.12 c 2.184,-0.216 3.88399,-0.828 5.1,-1.836 1.22399,-1.008 2.07199,-2.504 2.544,-4.488 l 1.476,0.408 c -0.48001,2.272 -1.45201,4.016 -2.916,5.232 -1.46401,1.216 -3.464,1.936 -6,2.16 l -0.204,-1.476 m -0.216,-6.252 0.816,-1.26 c 1.176,0.67201 2.304,1.392 3.384,2.16 l -0.864,1.26 c -1.032,-0.728 -2.144,-1.448 -3.336,-2.16" id="text3753" style="font-size:12px;font-style:normal;font-variant:normal;font-weight:bold;font-stretch:normal;text-align:start;line-height:125%;writing-mode:lr-tb;text-anchor:start;fill:#ffff80;fill-opacity:1;stroke:none;font-family:'M+ 2c';-inkscape-font-specification:'M+ 2c Bold'" />
    <path d="m 158.26042,-12.72307 2.04,0 0,-2.04 1.512,0 0,2.04 3.204,0 0,-2.04 1.56,0 0,2.04 2.076,0 0,1.404 -2.076,0 0,0.276 c -1e-5,1.9280037 -0.42001,3.3440023 -1.26,4.2480002 -0.84001,0.8960003 -2.256,1.4559998 -4.248,1.68 l -0.312,-1.368 c 1.648,-0.1999989 2.76799,-0.6239985 3.36,-1.272 0.59999,-0.6479972 0.89999,-1.7439961 0.9,-3.2880002 l 0,-0.276 -3.204,0 0,2.4000002 -1.512,0 0,-2.4000002 -2.04,0 0,-1.404 m 12.348,2.7240002 c 1.616,-0.3439952 3.156,-0.9159942 4.62,-1.7160002 1.46399,-0.807993 2.73599,-1.775992 3.816,-2.904 l 1.128,1.068 c -0.96001,1.008007 -2.09201,1.908006 -3.396,2.7 l 0,5.6520002 -1.644,0 0,-4.776 c -1.36,0.6560037 -2.756,1.1280033 -4.188,1.416 l -0.336,-1.44 m 19.764,-2.4480002 -1.356,0.648 c -0.32801,-0.655993 -0.70001,-1.347992 -1.116,-2.076 l 1.356,-0.684 1.116,2.112 m 2.124,-0.432 -1.38,0.66 c -0.33601,-0.663993 -0.71601,-1.371992 -1.14,-2.124 l 1.38,-0.696 c 0.51199,0.944009 0.89199,1.664008 1.14,2.16 m -8.136,-1.836 1.632,0 0,3.288 c 1.79199,0.472006 3.57199,1.096005 5.34,1.8720002 l -0.552,1.356 c -1.50401,-0.6719967 -3.10001,-1.2399961 -4.788,-1.704 l 0,4.86 -1.632,0 0,-9.6720002 m 10.44,4.68 0,-1.368 9.192,0 0,1.368 c -0.36001,1.4800032 -1.08001,2.616002 -2.16,3.4080002 -1.07201,0.7840003 -2.636,1.2999997 -4.692,1.548 l -0.264,-1.356 c 1.656,-0.2159989 2.92399,-0.6119985 3.804,-1.188 0.87999,-0.5839974 1.45999,-1.3879966 1.74,-2.4120002 l -7.62,0 m 0.996,-2.964 0,-1.356 7.32,0 0,1.356 -7.32,0 m 10.812,3.0000002 c 1.616,-0.3439952 3.156,-0.9159942 4.62,-1.7160002 1.46399,-0.807993 2.73599,-1.775992 3.816,-2.904 l 1.128,1.068 c -0.96001,1.008007 -2.09201,1.908006 -3.396,2.7 l 0,5.6520002 -1.644,0 0,-4.776 c -1.36,0.6560037 -2.756,1.1280033 -4.188,1.416 l -0.336,-1.44 m 12.708,3.12 c 2.184,-0.2159985 3.884,-0.8279979 5.1,-1.836 1.22399,-1.0079959 2.07199,-2.5039942 2.544,-4.4880002 l 1.476,0.408 c -0.48001,2.272005 -1.45201,4.0160034 -2.916,5.2320002 -1.46401,1.2160008 -3.464,1.936 -6,2.16 l -0.204,-1.476 m -0.216,-6.2520002 0.816,-1.26 c 1.176,0.672008 2.304,1.392008 3.384,2.16 l -0.864,1.26 c -1.032,-0.727994 -2.144,-1.447993 -3.336,-2.16" id="text3761" style="font-size:12px;font-style:normal;font-variant:normal;font-weight:bold;font-stretch:normal;text-align:start;line-height:125%;writing-mode:lr-tb;text-anchor:start;fill:#ffff80;fill-opacity:1;stroke:none;font-family:'M+ 2c';-inkscape-font-specification:'M+ 2c Bold'" />
    <path d="m -121.33896,-14.561746 8.4,0 0,1.404 -3.384,0 0,5.0399997 4.02,0 0,1.404 -9.672,0 0,-1.404 4.02,0 0,-5.0399997 -3.384,0 0,-1.404 m 12.06,6.9239997 c 2.18399,-0.2159985 3.88399,-0.8279979 5.1,-1.836 1.22399,-1.0079957 2.07199,-2.5039947 2.544,-4.4879997 l 1.476,0.408 c -0.48001,2.272005 -1.45201,4.0160029 -2.916,5.2319997 -1.46401,1.2160007 -3.46401,1.936 -6,2.16 l -0.204,-1.476 m -0.216,-6.2519997 0.816,-1.26 c 1.17599,0.672008 2.30399,1.392007 3.384,2.16 l -0.864,1.26 c -1.03201,-0.727994 -2.144,-1.447993 -3.336,-2.16 m 19.271998,0.684 -1.356,0.648 c -0.328007,-0.655993 -0.700007,-1.347993 -1.116,-2.076 l 1.356,-0.684 1.116,2.112 m 2.124,-0.432 -1.38,0.66 c -0.336009,-0.663993 -0.716009,-1.371992 -1.14,-2.124 l 1.38,-0.696 c 0.51199,0.944008 0.891989,1.664007 1.14,2.16 m -8.136,-1.836 1.632,0 0,3.288 c 1.791994,0.472005 3.571992,1.096004 5.34,1.872 l -0.552,1.3559997 c -1.504008,-0.6719967 -3.100006,-1.2399957 -4.788,-1.7039997 l 0,4.8599997 -1.632,0 0,-9.6719997 m 10.44,4.68 0,-1.368 9.192,0 0,1.368 c -0.36001,1.4800026 -1.080009,2.6160015 -2.16,3.4079997 -1.072007,0.7840002 -2.636006,1.2999997 -4.692,1.548 l -0.264,-1.356 c 1.655995,-0.215999 2.923994,-0.6119986 3.804,-1.188 0.879992,-0.5839974 1.459992,-1.3879966 1.74,-2.4119997 l -7.62,0 m 0.996,-2.964 0,-1.356 7.32,0 0,1.356 -7.32,0 m 10.812,3 c 1.615997,-0.343996 3.155996,-0.915995 4.62,-1.716 1.463993,-0.807993 2.735992,-1.775992 3.816,-2.904 l 1.128,1.068 c -0.96001,1.008007 -2.092008,1.908006 -3.396,2.7 l 0,5.6519997 -1.644,0 0,-4.7759997 c -1.360004,0.656003 -2.756003,1.1280029 -4.188,1.4159997 l -0.336,-1.4399997 m 12.708,3.1199997 c 2.183996,-0.2159985 3.883994,-0.8279979 5.1,-1.836 1.223992,-1.0079957 2.071991,-2.5039947 2.544,-4.4879997 l 1.476,0.408 c -0.48001,2.272005 -1.452009,4.0160029 -2.916,5.2319997 -1.464006,1.2160007 -3.464004,1.936 -6,2.16 l -0.204,-1.476 m -0.216,-6.2519997 0.816,-1.26 c 1.175997,0.672008 2.303995,1.392007 3.384,2.16 l -0.864,1.26 c -1.032004,-0.727994 -2.144003,-1.447993 -3.336,-2.16" transform="matrix(0,-1,1,0,0,0)" id="text3767" style="font-size:12px;font-style:normal;font-variant:normal;font-weight:bold;font-stretch:normal;text-align:start;line-height:125%;writing-mode:lr-tb;text-anchor:start;fill:#ffff80;fill-opacity:1;stroke:none;font-family:'M+ 2c';-inkscape-font-specification:'M+ 2c Bold'" />
    <path d="m 363.88,203.5059 -1.152,0.552 -0.936,-1.776 1.152,-0.576 c 0.36799,0.67201 0.67999,1.27201 0.936,1.8 m -2.244,0.336 0,8.304 -1.596,0 0,-0.72 -6.684,0 0,-1.404 6.684,0 0,-4.836 -6.684,0 0,-1.404 7.344,0 -0.708,-1.332 1.128,-0.564 c 0.32799,0.61601 0.63199,1.20401 0.912,1.764 l -0.396,0.192 m 3.6,4.26 0,-1.596 9.528,0 0,1.596 -9.528,0 m 16.764,4.104 0,-9.204 1.596,0 0,7.416 c 1.22399,-0.608 2.03999,-1.92 2.448,-3.936 l 1.476,0.336 c -0.25601,1.424 -0.69601,2.56 -1.32,3.408 -0.62401,0.84 -1.49201,1.5 -2.604,1.98 l -1.596,0 m -3.096,-9.204 1.596,0 0,2.244 c 0,1.568 -0.084,2.784 -0.252,3.648 -0.16,0.856 -0.44,1.544 -0.84,2.064 -0.392,0.512 -0.988,0.992 -1.788,1.44 l -0.96,-1.188 c 0.504,-0.28 0.884,-0.536 1.14,-0.768 0.256,-0.232 0.476,-0.568 0.66,-1.008 0.192,-0.448 0.312,-0.984 0.36,-1.608 0.056,-0.624 0.084,-1.484 0.084,-2.58 l 0,-2.244 m 10.14,1.344 4.152,0 0,-1.836 1.644,0 0,1.836 1.644,0 c -0.13601,-0.256 -0.20401,-0.53599 -0.204,-0.84 -10e-6,-0.49599 0.17599,-0.91999 0.528,-1.272 0.35199,-0.35199 0.77599,-0.52799 1.272,-0.528 0.49599,10e-6 0.91999,0.17601 1.272,0.528 0.35199,0.35201 0.52799,0.77601 0.528,1.272 -10e-6,0.384 -0.10801,0.728 -0.324,1.032 -0.21601,0.304 -0.49601,0.52 -0.84,0.648 l 0,0.516 -3.876,0 0,4.728 c -10e-6,0.472 -0.016,0.824 -0.048,1.056 -0.032,0.232 -0.12401,0.424 -0.276,0.576 -0.14401,0.152 -0.33201,0.244 -0.564,0.276 -0.22401,0.032 -0.56801,0.048 -1.032,0.048 -0.424,0 -0.972,-0.048 -1.644,-0.144 l 0.096,-1.38 c 0.552,0.08 1,0.12 1.344,0.12 0.232,0 0.36799,-0.024 0.408,-0.072 0.048,-0.056 0.072,-0.216 0.072,-0.48 l 0,-4.728 -4.152,0 0,-1.356 m 1.404,2.28 1.404,0.492 c -0.552,1.384 -1.168,2.744 -1.848,4.08 l -1.356,-0.612 c 0.648,-1.28 1.248,-2.6 1.8,-3.96 m 5.484,0.504 1.38,-0.54 c 0.65599,1.384 1.25599,2.744 1.8,4.08 l -1.38,0.54 c -0.60001,-1.456 -1.20001,-2.816 -1.8,-4.08 m 2.7,-3.072 c 0.15199,-0.152 0.22799,-0.33599 0.228,-0.552 -1e-5,-0.21599 -0.076,-0.39999 -0.228,-0.552 -0.15201,-0.15199 -0.33601,-0.22799 -0.552,-0.228 -0.21601,1e-5 -0.40001,0.076 -0.552,0.228 -0.15201,0.15201 -0.22801,0.33601 -0.228,0.552 -1e-5,0.21601 0.076,0.4 0.228,0.552 0.15199,0.152 0.33599,0.228 0.552,0.228 0.21599,0 0.39999,-0.076 0.552,-0.228 m 3.684,0.648 0,-1.404 7.32,0 0,1.404 c -0.43201,1.128 -1.10801,2.236 -2.028,3.324 l 3.216,3.072 -1.068,1.068 -3.192,-3.06 c -1.43201,1.36 -3.028,2.356 -4.788,2.988 l -0.636,-1.308 c 1.536,-0.592 2.924,-1.456 4.164,-2.592 1.23999,-1.136 2.09599,-2.3 2.568,-3.492 l -5.556,0 m 13.068,-1.956 1.632,0 0,3.288 c 1.79199,0.472 3.57199,1.096 5.34,1.872 l -0.552,1.356 c -1.50401,-0.672 -3.10001,-1.24 -4.788,-1.704 l 0,4.86 -1.632,0 0,-9.672" id="text3773" style="font-size:12px;font-style:normal;font-variant:normal;font-weight:bold;font-stretch:normal;text-align:start;line-height:125%;writing-mode:lr-tb;text-anchor:start;fill:#ffff80;fill-opacity:1;stroke:none;font-family:'M+ 2c';-inkscape-font-specification:'M+ 2c Bold'" />
    <path d="m 391.03005,70.431103 11.31371,0 0,125.157897 0.15624,-0.7071" id="path3779" style="fill:none;stroke:#ffff80;stroke-width:1px;stroke-linecap:butt;stroke-linejoin:miter;stroke-opacity:1" />
    <path d="m 390.54255,104.1319 11.6649,0" id="path3781" style="fill:none;stroke:#ffff80;stroke-width:1.04168439px;stroke-linecap:butt;stroke-linejoin:miter;stroke-opacity:1" />
  </g>
</svg>
